<?xml version="1.0" encoding="UTF-8" standalone="no"?>
<!-- Created with Inkscape (http://www.inkscape.org/) -->

<svg
   width="32.708321mm"
   height="32.70834mm"
   viewBox="0 0 32.708321 32.70834"
   version="1.1"
   id="svg1049"
   inkscape:version="1.2.2 (b0a8486541, 2022-12-01)"
   sodipodi:docname="9 BOLAS-2.svg"
   xmlns:inkscape="http://www.inkscape.org/namespaces/inkscape"
   xmlns:sodipodi="http://sodipodi.sourceforge.net/DTD/sodipodi-0.dtd"
   xmlns="http://www.w3.org/2000/svg"
   xmlns:svg="http://www.w3.org/2000/svg">
  <sodipodi:namedview
     id="namedview1051"
     pagecolor="#ffffff"
     bordercolor="#666666"
     borderopacity="1.0"
     inkscape:showpageshadow="2"
     inkscape:pageopacity="0.0"
     inkscape:pagecheckerboard="0"
     inkscape:deskcolor="#d1d1d1"
     inkscape:document-units="px"
     showgrid="false"
     inkscape:zoom="0.84096521"
     inkscape:cx="-196.20312"
     inkscape:cy="20.214867"
     inkscape:window-width="1920"
     inkscape:window-height="1003"
     inkscape:window-x="0"
     inkscape:window-y="0"
     inkscape:window-maximized="1"
     inkscape:current-layer="layer1" />
  <defs
     id="defs1046" />
  <g
     inkscape:label="Layer 1"
     inkscape:groupmode="layer"
     id="layer1"
     transform="translate(-117.0299,-4.9651695)">
    <g
       id="g4164"
       transform="matrix(0.96865727,0,0,0.96865727,-39.360992,1.6859763)"
       style="stroke-width:1.03236">
      <path
         id="rect1222"
         style="opacity:0.95;fill:#800000;fill-opacity:0.0143678;stroke:none;stroke-width:0.103236;stroke-linecap:round;stroke-linejoin:round"
         d="m 161.45121,3.3852977 h 33.76666 V 37.151977 h -33.76666 z" />
      <g
         id="g1559"
         transform="translate(68.843515,-76.708093)"
         style="stroke:none;stroke-width:1.03236">
        <g
           id="g1490"
           style="stroke:none;stroke-width:1.03236">
          <g
             id="g1460"
             transform="translate(0,-3.0223199)"
             style="stroke:none;stroke-width:1.03236">
            <path
               id="path1378"
               style="opacity:0.95;fill:#ffffff;fill-opacity:0.909804;stroke:none;stroke-width:0.103236;stroke-linecap:round;stroke-linejoin:round"
               d="m 123.21477,89.30299 a 3.0119603,3.0119603 0 0 1 -3.01196,3.01196 3.0119603,3.0119603 0 0 1 -3.01196,-3.01196 3.0119603,3.0119603 0 0 1 3.01196,-3.01195 3.0119603,3.0119603 0 0 1 3.01196,3.01195 z" />
            <path
               id="path1381"
               style="opacity:0.95;fill:#ffffff;fill-opacity:0.909804;stroke:none;stroke-width:0.103236;stroke-linecap:round;stroke-linejoin:round"
               d="m 101.79119,89.30299 a 3.0119603,3.0119603 0 0 1 -3.011954,3.01196 3.0119603,3.0119603 0 0 1 -3.011956,-3.01196 3.0119603,3.0119603 0 0 1 3.011956,-3.01195 3.0119603,3.0119603 0 0 1 3.011954,3.01195 z" />
            <path
               id="path1385"
               style="opacity:0.95;fill:#ffffff;fill-opacity:0.909804;stroke:none;stroke-width:0.103236;stroke-linecap:round;stroke-linejoin:round"
               d="m 112.50298,89.30299 a 3.0119603,3.0119603 0 0 1 -3.01196,3.01196 3.0119603,3.0119603 0 0 1 -3.01196,-3.01196 3.0119603,3.0119603 0 0 1 3.01196,-3.01195 3.0119603,3.0119603 0 0 1 3.01196,3.01195 z" />
          </g>
          <g
             id="g1468"
             transform="translate(0,18.36979)"
             style="stroke:none;stroke-width:1.03236">
            <path
               id="path1462"
               style="opacity:0.95;fill:#ffffff;fill-opacity:0.909804;stroke:none;stroke-width:0.103236;stroke-linecap:round;stroke-linejoin:round"
               d="m 123.21477,89.30299 a 3.0119603,3.0119603 0 0 1 -3.01196,3.01196 3.0119603,3.0119603 0 0 1 -3.01196,-3.01196 3.0119603,3.0119603 0 0 1 3.01196,-3.01195 3.0119603,3.0119603 0 0 1 3.01196,3.01195 z" />
            <path
               id="path1464"
               style="opacity:0.95;fill:#ffffff;fill-opacity:0.909804;stroke:none;stroke-width:0.103236;stroke-linecap:round;stroke-linejoin:round"
               d="m 101.79119,89.30299 a 3.0119603,3.0119603 0 0 1 -3.011954,3.01196 3.0119603,3.0119603 0 0 1 -3.011956,-3.01196 3.0119603,3.0119603 0 0 1 3.011956,-3.01195 3.0119603,3.0119603 0 0 1 3.011954,3.01195 z" />
            <path
               id="path1466"
               style="opacity:0.95;fill:#ffffff;fill-opacity:0.909804;stroke:none;stroke-width:0.103236;stroke-linecap:round;stroke-linejoin:round"
               d="m 112.50298,89.30299 a 3.0119603,3.0119603 0 0 1 -3.01196,3.01196 3.0119603,3.0119603 0 0 1 -3.01196,-3.01196 3.0119603,3.0119603 0 0 1 3.01196,-3.01195 3.0119603,3.0119603 0 0 1 3.01196,3.01195 z" />
          </g>
          <g
             id="g1476"
             transform="translate(0,7.673735)"
             style="stroke:none;stroke-width:1.03236">
            <path
               id="path1470"
               style="opacity:0.95;fill:#ffffff;fill-opacity:0.909804;stroke:none;stroke-width:0.103236;stroke-linecap:round;stroke-linejoin:round"
               d="m 123.21477,89.30299 a 3.0119603,3.0119603 0 0 1 -3.01196,3.01196 3.0119603,3.0119603 0 0 1 -3.01196,-3.01196 3.0119603,3.0119603 0 0 1 3.01196,-3.01195 3.0119603,3.0119603 0 0 1 3.01196,3.01195 z" />
            <path
               id="path1472"
               style="opacity:0.95;fill:#ffffff;fill-opacity:0.909804;stroke:none;stroke-width:0.103236;stroke-linecap:round;stroke-linejoin:round"
               d="m 101.79119,89.30299 a 3.0119603,3.0119603 0 0 1 -3.011954,3.01196 3.0119603,3.0119603 0 0 1 -3.011956,-3.01196 3.0119603,3.0119603 0 0 1 3.011956,-3.01195 3.0119603,3.0119603 0 0 1 3.011954,3.01195 z" />
            <path
               id="path1474"
               style="opacity:0.95;fill:#ffffff;fill-opacity:0.909804;stroke:none;stroke-width:0.103236;stroke-linecap:round;stroke-linejoin:round"
               d="m 112.50298,89.30299 a 3.0119603,3.0119603 0 0 1 -3.01196,3.01196 3.0119603,3.0119603 0 0 1 -3.01196,-3.01196 3.0119603,3.0119603 0 0 1 3.01196,-3.01195 3.0119603,3.0119603 0 0 1 3.01196,3.01195 z" />
          </g>
        </g>
      </g>
    </g>
  </g>
</svg>
